<svg width="751" height="215" viewBox="0 0 751 215" fill="none" xmlns="http://www.w3.org/2000/svg">
<path fill-rule="evenodd" clip-rule="evenodd" d="M101.039 0.542588C196.122 -1.86352 248.781 98.1844 192.189 173.959C164.546 210.975 101.623 229.723 51.7811 199.302C43.6651 194.348 33.6403 186.137 27.152 178.666C37.6556 165.392 48.1592 151.753 58.6628 138.479H152.833C148.366 145.358 143.536 152.237 139.07 159.115H67.3554L52.1433 177.579V178.303C66.3101 187.716 80.3944 195.811 103.937 196.405C115.994 196.71 127.907 194.177 136.172 191.699C185.559 176.892 215.832 115.549 183.257 61.3651C143.286 -5.12295 43.1913 10.802 21.7191 83.0874C17.7147 96.5675 17.0729 114.699 20.9947 128.342C28.2385 118.327 35.1202 107.584 42.3641 97.5689H141.967L141.605 98.655L128.204 118.567L51.0567 118.929L16.6484 164.908H16.2862C-17.7962 104.701 7.06726 41.508 55.0408 13.938C68.2337 6.3562 81.8431 2.30028 101.039 0.542588ZM66.631 56.6586H167.321L153.557 78.0188L47.797 77.6568L48.1592 77.2947L66.631 56.6586Z" fill="url(#paint0_linear_120_1174)" stroke="black" stroke-opacity="0.9" stroke-linejoin="round"/>
<path d="M278.591 72.795V97.675H317.141V113.245H278.591V140.825H322.251V157.165H262.501C262.501 123.615 262.501 90.055 262.501 56.505H322.181C322.201 61.935 322.221 67.365 322.251 72.795H278.591Z" fill="url(#paint1_linear_120_1174)"/>
<path d="M417.231 56.505L416.691 58.805L390.781 159.435H362.391L336.491 58.805L335.941 56.505H354.611L376.591 141.875L398.561 56.505H417.231Z" fill="url(#paint2_linear_120_1174)"/>
<path d="M492.281 65.775C485.491 58.975 476.111 54.775 465.741 54.775C445.011 54.775 428.211 71.585 428.211 92.315V122.695C428.211 143.425 445.011 160.225 465.741 160.225C486.471 160.225 503.271 143.425 503.271 122.695V92.315C503.271 81.945 499.071 72.565 492.281 65.775ZM486.151 122.435C486.151 134.565 476.321 144.395 464.191 144.395C452.061 144.395 442.231 134.565 442.231 122.435V91.285C442.231 79.165 452.061 69.335 464.191 69.335C470.251 69.335 475.751 71.795 479.721 75.765C483.691 79.735 486.151 85.225 486.151 91.285V122.435Z" fill="url(#paint3_linear_120_1174)"/>
<path d="M582.191 72.7951L537.861 140.765H583.951V156.995H516.801V143.335L518.481 140.765L562.821 72.7951H516.801V56.5651H583.951C583.361 61.9751 582.781 67.3851 582.191 72.7951Z" fill="url(#paint4_linear_120_1174)"/>
<path d="M664.151 72.7951L619.821 140.765H665.911V156.995H598.761V143.335L600.441 140.765L644.781 72.7951H598.761V56.5651H665.911C665.321 61.9751 664.741 67.3851 664.151 72.7951Z" fill="url(#paint5_linear_120_1174)"/>
<path d="M750.931 56.565C750.951 90.025 750.971 123.485 750.991 156.935C750.111 156.955 749.231 156.975 748.361 156.995H735.751L697.061 86.595V156.995H682.251C682.201 123.495 682.151 89.995 682.101 56.505H697.651C710.471 79.975 723.291 103.455 736.121 126.925V56.565H750.931Z" fill="url(#paint6_linear_120_1174)"/>
<defs>
<linearGradient id="paint0_linear_120_1174" x1="108.006" y1="214.507" x2="108.006" y2="0.497334" gradientUnits="userSpaceOnUse">
<stop stop-color="#1351A9"/>
<stop offset="1" stop-color="#027BFE"/>
</linearGradient>
<linearGradient id="paint1_linear_120_1174" x1="292.611" y1="56.225" x2="292.611" y2="157.225" gradientUnits="userSpaceOnUse">
<stop stop-color="#0374F0"/>
<stop offset="1" stop-color="#0F56B5"/>
</linearGradient>
<linearGradient id="paint2_linear_120_1174" x1="372.111" y1="56.225" x2="376.611" y2="154.725" gradientUnits="userSpaceOnUse">
<stop stop-color="#0375F2"/>
<stop offset="1" stop-color="#0F56B4"/>
</linearGradient>
<linearGradient id="paint3_linear_120_1174" x1="465.611" y1="55.225" x2="465.611" y2="160.225" gradientUnits="userSpaceOnUse">
<stop stop-color="#0277F6"/>
<stop offset="1" stop-color="#1054B0"/>
</linearGradient>
<linearGradient id="paint4_linear_120_1174" x1="550.611" y1="56.225" x2="550.611" y2="157.225" gradientUnits="userSpaceOnUse">
<stop stop-color="#0279F9"/>
<stop offset="1" stop-color="#1252AC"/>
</linearGradient>
<linearGradient id="paint5_linear_120_1174" x1="632.611" y1="59.725" x2="632.611" y2="157.225" gradientUnits="userSpaceOnUse">
<stop stop-color="#0279F9"/>
<stop offset="1" stop-color="#1252AC"/>
</linearGradient>
<linearGradient id="paint6_linear_120_1174" x1="716.611" y1="56.225" x2="716.611" y2="157.225" gradientUnits="userSpaceOnUse">
<stop stop-color="#0277F6"/>
<stop offset="1" stop-color="#1153AF"/>
</linearGradient>
</defs>
</svg>
