<?xml version="1.0" encoding="UTF-8"?>
<svg xmlns="http://www.w3.org/2000/svg" xmlns:xlink="http://www.w3.org/1999/xlink" viewBox="0 0 1024 1024">
  <defs>
    <style>
      .cls-1 {
        fill: url(#Gradiente_sem_nome_168-2);
      }

      .cls-2 {
        fill: url(#Gradiente_sem_nome_168-13);
      }

      .cls-3 {
        fill: url(#Gradiente_sem_nome_168);
      }

      .cls-4 {
        fill: url(#Gradiente_sem_nome_168-3);
      }

      .cls-5 {
        fill: none;
      }

      .cls-6 {
        fill: url(#Gradiente_sem_nome_168-12);
      }

      .cls-7 {
        fill: url(#Gradiente_sem_nome_168-11);
      }

      .cls-8 {
        fill: url(#Gradiente_sem_nome_168-9);
      }

      .cls-9 {
        fill: url(#Gradiente_sem_nome_168-10);
      }

      .cls-10 {
        fill: url(#Gradiente_sem_nome_168-6);
      }

      .cls-11 {
        fill: url(#Gradiente_sem_nome_168-8);
      }

      .cls-12 {
        fill: url(#Gradiente_sem_nome_168-14);
      }

      .cls-13 {
        fill: url(#Gradiente_sem_nome_168-7);
      }

      .cls-14 {
        fill: url(#Gradiente_sem_nome_168-5);
      }

      .cls-15 {
        fill: url(#Gradiente_sem_nome_168-4);
      }
    </style>
    <linearGradient id="Gradiente_sem_nome_168" data-name="Gradiente sem nome 168" x1="272.93" y1="491.04" x2="233.89" y2="558.66" gradientUnits="userSpaceOnUse">
      <stop offset="0" stop-color="#0036e9"/>
      <stop offset="1" stop-color="#000045"/>
    </linearGradient>
    <linearGradient id="Gradiente_sem_nome_168-2" data-name="Gradiente sem nome 168" x1="199.61" y1="538.51" x2="199.45" y2="538.78" xlink:href="#Gradiente_sem_nome_168"/>
    <linearGradient id="Gradiente_sem_nome_168-3" data-name="Gradiente sem nome 168" x1="265.77" y1="437.57" x2="227.38" y2="504.07" xlink:href="#Gradiente_sem_nome_168"/>
    <linearGradient id="Gradiente_sem_nome_168-4" data-name="Gradiente sem nome 168" x1="283.62" y1="497.22" x2="283.16" y2="498.02" xlink:href="#Gradiente_sem_nome_168"/>
    <linearGradient id="Gradiente_sem_nome_168-5" data-name="Gradiente sem nome 168" x1="301.77" y1="412.02" x2="193.2" y2="600.07" xlink:href="#Gradiente_sem_nome_168"/>
    <linearGradient id="Gradiente_sem_nome_168-6" data-name="Gradiente sem nome 168" x1="280.25" y1="557.93" x2="280.14" y2="558.13" xlink:href="#Gradiente_sem_nome_168"/>
    <linearGradient id="Gradiente_sem_nome_168-7" data-name="Gradiente sem nome 168" x1="268.21" y1="518.42" x2="268.03" y2="518.74" xlink:href="#Gradiente_sem_nome_168"/>
    <linearGradient id="Gradiente_sem_nome_168-8" data-name="Gradiente sem nome 168" x1="283.62" y1="497.22" x2="283.16" y2="498.02" xlink:href="#Gradiente_sem_nome_168"/>
    <linearGradient id="Gradiente_sem_nome_168-9" data-name="Gradiente sem nome 168" x1="462.01" y1="459.95" x2="403.5" y2="561.29" xlink:href="#Gradiente_sem_nome_168"/>
    <linearGradient id="Gradiente_sem_nome_168-10" data-name="Gradiente sem nome 168" x1="539.5" y1="449.82" x2="481.22" y2="550.76" xlink:href="#Gradiente_sem_nome_168"/>
    <linearGradient id="Gradiente_sem_nome_168-11" data-name="Gradiente sem nome 168" x1="631.48" y1="467.37" x2="580.78" y2="555.18" xlink:href="#Gradiente_sem_nome_168"/>
    <linearGradient id="Gradiente_sem_nome_168-12" data-name="Gradiente sem nome 168" x1="720.9" y1="458.36" x2="660.63" y2="562.75" xlink:href="#Gradiente_sem_nome_168"/>
    <linearGradient id="Gradiente_sem_nome_168-13" data-name="Gradiente sem nome 168" x1="802.86" y1="458.36" x2="742.59" y2="562.75" xlink:href="#Gradiente_sem_nome_168"/>
    <linearGradient id="Gradiente_sem_nome_168-14" data-name="Gradiente sem nome 168" x1="887.25" y1="457.99" x2="826.59" y2="563.05" xlink:href="#Gradiente_sem_nome_168"/>
  </defs>
  <g id="LOGO">
    <path class="cls-3" d="M199.49,538.55v.25l.19-.25h-.19ZM280.17,557.96v.19l.13-.19h-.13ZM283.35,497.21l-.46.65h.72v-.65h-.26ZM268.08,518.47v.3l.21-.3h-.21Z"/>
    <path class="cls-3" d="M199.49,538.55v.25l.19-.25h-.19ZM280.17,557.96v.19l.13-.19h-.13ZM283.35,497.21l-.46.65h.72v-.65h-.26ZM268.08,518.47v.3l.21-.3h-.21Z"/>
    <polygon class="cls-1" points="199.68 538.55 199.49 538.8 199.49 538.55 199.68 538.55"/>
    <polygon class="cls-4" points="305.11 460.28 290.19 481.36 188.04 481.36 204.46 460.28 305.11 460.28"/>
    <polygon class="cls-15" points="283.61 497.21 283.61 497.86 282.89 497.86 283.35 497.21 283.61 497.21"/>
    <path class="cls-14" d="M355.4,506.04c0,60.07-48.31,108.77-107.91,108.77-24.69,0-47.44-8.35-65.62-22.42-5.05-3.9-9.75-8.24-14.03-12.97l10.99-14.11,20.66-26.51.19-.25h94.37c-4.48,7.42-8.97,14.84-13.45,22.26h-71.68c-5.5,6.02-11,12.04-16.5,18.06,15.2,12.28,34.39,19.6,55.25,19.6,49.35,0,89.36-40.99,89.36-91.56s-40.01-91.55-89.36-91.55-89.36,40.99-89.36,91.55c0,6.52.67,12.88,1.94,19.02,8-9.57,15.99-19.15,23.99-28.72h99.12l-.46.65-14.55,23.12c-25.38.15-50.77.3-76.15.45l-24.08,27.24-11.95,15.34c-3.95-6.31-7.28-13.05-9.88-20.15-4.34-11.78-6.71-24.52-6.71-37.82,0-60.07,48.32-108.76,107.92-108.76s107.91,48.69,107.91,108.76Z"/>
    <polygon class="cls-10" points="280.3 557.96 280.17 558.15 280.17 557.96 280.3 557.96"/>
    <polygon class="cls-13" points="268.29 518.47 268.08 518.77 268.08 518.47 268.29 518.47"/>
    <polygon class="cls-11" points="283.61 497.21 283.61 497.86 282.89 497.86 283.35 497.21 283.61 497.21"/>
  </g>
  <g id="Camada_3" data-name="Camada 3">
    <path class="cls-8" d="M418.98,476.57v24.88h38.55v15.57h-38.55v27.58h43.66v16.34h-59.75c0-33.55,0-67.11,0-100.66h59.68c.02,5.43.04,10.86.07,16.29h-43.66Z"/>
    <path class="cls-9" d="M557.62,460.28l-.54,2.3-25.91,100.63h-28.39l-25.9-100.63-.55-2.3h18.67l21.98,85.37,21.97-85.37h18.67Z"/>
    <path class="cls-7" d="M632.67,469.55c-6.79-6.8-16.17-11-26.54-11-20.73,0-37.53,16.81-37.53,37.54v30.38c0,20.73,16.8,37.53,37.53,37.53s37.53-16.8,37.53-37.53v-30.38c0-10.37-4.2-19.75-10.99-26.54ZM626.54,526.21c0,12.13-9.83,21.96-21.96,21.96s-21.96-9.83-21.96-21.96v-31.15c0-12.12,9.83-21.95,21.96-21.95,6.06,0,11.56,2.46,15.53,6.43,3.97,3.97,6.43,9.46,6.43,15.52v31.15Z"/>
    <path class="cls-5" d="M626.54,495.06v31.15c0,12.13-9.83,21.96-21.96,21.96s-21.96-9.83-21.96-21.96v-31.15c0-12.12,9.83-21.95,21.96-21.95,6.06,0,11.56,2.46,15.53,6.43,3.97,3.97,6.43,9.46,6.43,15.52Z"/>
    <path class="cls-6" d="M722.58,476.57l-44.33,67.97h46.09v16.23h-67.15v-13.66l1.68-2.57,44.34-67.97h-46.02v-16.23h67.15c-.59,5.41-1.17,10.82-1.76,16.23Z"/>
    <path class="cls-2" d="M804.54,476.57l-44.33,67.97h46.09v16.23h-67.15v-13.66l1.68-2.57,44.34-67.97h-46.02v-16.23h67.15c-.59,5.41-1.17,10.82-1.76,16.23Z"/>
    <path class="cls-12" d="M891.32,460.34c.02,33.46.04,66.92.06,100.37-.88.02-1.76.04-2.63.06h-12.61l-38.69-70.4v70.4h-14.81c-.05-33.5-.1-67-.15-100.49h15.55c12.82,23.47,25.64,46.95,38.47,70.42v-70.36h14.81Z"/>
  </g>
</svg>

