<svg xmlns="http://www.w3.org/2000/svg" xmlns:xlink="http://www.w3.org/1999/xlink" width="624" height="621" viewBox="0 0 624 621">
  <defs>
    <style>
      .cls-1 {
        stroke: #000;
        stroke-linejoin: round;
        stroke-opacity: 0.9;
        stroke-width: 1px;
        fill-rule: evenodd;
        fill: url(#linear-gradient);
      }
    </style>
    <linearGradient id="linear-gradient" x1="309.234" y1="607" x2="309.234" y2="15.875" gradientUnits="userSpaceOnUse">
      <stop offset="0" stop-color="#1351a9"/>
      <stop offset="1" stop-color="#027bfe"/>
    </linearGradient>
  </defs>
  <path id="Preenchimento_Gradiente_1" data-name="Preenchimento Gradiente 1" class="cls-1" d="M290,16C552.519,9.354,697.908,285.7,541.661,495,465.338,597.243,291.611,649.027,154,565c-22.408-13.683-50.086-36.363-68-57,29-36.663,58-74.337,87-111H433c-12.332,19-25.668,38-38,57H197l-42,51v2c39.114,26,78,48.357,143,50,33.289,0.841,66.18-6.156,89-13,136.355-40.9,219.937-210.336,130-360C406.641,0.351,130.284,44.338,71,244c-11.056,37.234-12.828,87.315-2,125,20-27.664,39-57.336,59-85H403l-1,3-37,55-213,1L57,470H56C-38.1,303.7,30.547,129.152,163,53,199.425,32.058,237,20.855,290,16ZM195,171H473l-38,59-292-1,1-1Z"/>
</svg>

